<?xml version="1.0" standalone="no"?>
<!DOCTYPE svg PUBLIC "-//W3C//DTD SVG 20010904//EN"
 "http://www.w3.org/TR/2001/REC-SVG-20010904/DTD/svg10.dtd">
<svg version="1.0" xmlns="http://www.w3.org/2000/svg"
 width="262.000000pt" height="268.000000pt" viewBox="0 0 262.000000 268.000000"
 preserveAspectRatio="xMidYMid meet">
<metadata>
Created by potrace 1.11, written by Peter Selinger 2001-2013
</metadata>
<g transform="translate(0.000000,268.000000) scale(0.100000,-0.100000)"
fill="#000000" stroke="none">
<path d="M1119 2230 c-370 -4 -479 -8 -492 -18 -43 -36 -92 -226 -67 -257 7
-8 10 -24 7 -35 -10 -38 29 -43 263 -34 253 10 430 11 630 4 l145 -5 3 36 c2
19 -6 56 -18 83 -26 61 -25 89 2 137 34 62 108 84 156 46 22 -18 49 -79 56
-129 12 -83 -26 -284 -84 -443 -37 -100 -75 -269 -100 -440 -6 -44 -15 -107
-20 -140 -10 -68 -24 -178 -39 -310 -27 -227 -33 -270 -42 -287 -16 -30 -32
-21 -25 15 3 18 10 77 16 132 32 326 79 654 119 830 5 22 12 56 16 75 4 19 18
67 32 105 26 75 42 134 63 230 7 33 16 76 21 95 5 19 9 68 9 108 0 60 -4 79
-25 112 -30 48 -59 52 -104 14 -26 -21 -31 -33 -31 -69 0 -23 9 -65 21 -92 18
-43 19 -56 9 -92 l-11 -41 -418 0 -418 0 -12 -87 c-6 -49 -16 -117 -21 -153
-5 -36 -12 -85 -15 -110 -13 -99 -36 -257 -54 -365 -6 -33 -15 -87 -20 -120
-15 -90 -29 -160 -52 -265 -33 -151 -33 -157 -12 -168 10 -5 36 -12 58 -15 22
-4 60 -11 85 -17 25 -6 63 -15 85 -20 78 -17 202 -49 315 -81 19 -6 49 -14 65
-19 80 -22 202 -62 217 -70 10 -6 26 -10 36 -10 27 0 273 63 367 94 81 27 88
30 159 61 l39 17 -7 67 c-3 36 -11 109 -16 161 -12 128 -29 304 -40 425 -5 55
-14 145 -19 200 -6 55 -13 134 -16 175 -25 326 -91 571 -171 641 -42 37 -14
36 -645 29z"/>
</g>
</svg>
